<?xml version="1.0" encoding="UTF-8" standalone="no"?>
<!DOCTYPE svg PUBLIC "-//W3C//DTD SVG 1.1//EN" "http://www.w3.org/Graphics/SVG/1.1/DTD/svg11.dtd">
<svg version="1.1" xmlns="http://www.w3.org/2000/svg" xmlns:xlink="http://www.w3.org/1999/xlink" preserveAspectRatio="xMidYMid meet" viewBox="0 0 640 640" width="1000" height="1000"><defs><path d="M195.17 101.23L198.19 101.87L201.19 102.64L204.16 103.52L207.11 104.51L210.02 105.63L212.89 106.86L215.72 108.2L218.51 109.67L221.26 111.25L223.95 112.95L226.58 114.77L229.16 116.7L231.68 118.75L234.13 120.92L236.51 123.21L238.79 125.59L240.96 128.04L243.01 130.55L244.95 133.13L246.76 135.77L248.46 138.46L250.05 141.2L251.51 143.99L252.86 146.83L254.09 149.7L255.2 152.61L256.2 155.55L257.08 158.53L257.84 161.52L258.49 164.54L259.01 167.58L259.42 170.64L259.72 173.7L259.89 176.77L259.95 179.85L259.89 182.92L259.72 185.99L259.42 189.06L259.01 192.11L258.49 195.15L257.84 198.17L257.08 201.17L256.2 204.14L255.2 207.08L254.09 209.99L252.86 212.87L251.51 215.7L251.05 216.59L252.62 217.59L255.62 219.55L258.56 221.5L261.46 223.46L264.32 225.44L267.13 227.43L269.91 229.44L272.65 231.47L275.36 233.53L278.03 235.61L280.67 237.73L283.28 239.89L285.87 242.08L288.36 244.26L311.64 244.26L314.13 242.08L316.72 239.89L319.33 237.73L321.97 235.61L324.64 233.53L327.35 231.47L330.09 229.44L332.87 227.43L335.68 225.44L338.54 223.46L341.44 221.5L344.38 219.55L347.38 217.59L348.96 216.58L348.5 215.72L347.16 212.88L345.93 210.01L344.81 207.1L343.82 204.15L342.94 201.18L342.17 198.18L341.53 195.16L341 192.12L340.59 189.07L340.3 186.01L340.12 182.94L340.06 179.86L340.12 176.79L340.3 173.72L340.59 170.65L341 167.6L341.53 164.56L342.17 161.54L342.94 158.54L343.82 155.57L344.81 152.63L345.93 149.71L347.16 146.84L348.5 144.01L349.97 141.22L351.55 138.48L353.25 135.78L355.07 133.15L357 130.57L359.05 128.05L361.22 125.6L363.51 123.22L365.89 120.94L368.34 118.77L370.85 116.72L373.43 114.78L376.07 112.97L378.76 111.27L381.5 109.68L384.29 108.22L387.13 106.87L390 105.64L392.91 104.53L395.85 103.53L398.83 102.65L401.82 101.89L404.84 101.25L407.88 100.72L410.94 100.31L414 100.01L417.07 99.84L420.15 99.78L423.22 99.84L426.29 100.01L429.36 100.31L432.41 100.72L435.45 101.25L438.47 101.89L441.47 102.65L444.44 103.53L447.38 104.53L450.29 105.64L453.17 106.87L456 108.22L458.79 109.68L461.53 111.27L464.22 112.97L466.86 114.78L469.44 116.72L471.95 118.77L474.4 120.94L476.78 123.22L479.07 125.6L481.24 128.05L483.29 130.57L485.22 133.15L487.04 135.78L488.74 138.48L490.32 141.22L491.79 144.01L493.14 146.84L494.37 149.71L495.48 152.63L496.48 155.57L497.36 158.54L498.12 161.54L498.76 164.56L499.29 167.6L499.7 170.65L499.99 173.72L500.17 176.79L500.23 179.86L500.17 182.94L499.99 186.01L499.7 189.07L499.29 192.12L498.76 195.16L498.12 198.18L497.36 201.18L496.48 204.15L495.48 207.1L494.37 210.01L493.14 212.88L491.79 215.72L490.32 218.51L488.74 221.25L487.04 223.94L485.22 226.58L483.29 229.15L481.24 231.67L479.07 234.12L476.78 236.5L474.4 238.78L471.95 240.95L469.44 243L466.86 244.94L464.22 246.76L461.53 248.46L458.79 250.04L456 251.5L453.17 252.85L450.29 254.08L447.38 255.2L444.44 256.19L441.47 257.07L438.47 257.83L435.45 258.48L432.41 259.01L429.36 259.42L426.29 259.71L423.22 259.88L420.15 259.94L417.07 259.88L414 259.71L410.94 259.42L407.88 259.01L404.84 258.48L401.82 257.83L398.83 257.07L395.85 256.19L392.91 255.2L390 254.08L387.13 252.85L384.29 251.5L383.42 251.04L382.41 252.62L380.45 255.62L378.5 258.56L376.54 261.46L374.56 264.32L372.57 267.13L370.56 269.91L368.53 272.65L366.47 275.36L364.39 278.03L362.27 280.67L360.11 283.28L357.92 285.87L355.68 288.43L355 289.18L355 310.82L355.68 311.57L357.92 314.13L360.11 316.72L362.27 319.33L364.39 321.97L366.47 324.64L368.53 327.35L370.56 330.09L372.57 332.87L374.56 335.68L376.54 338.54L378.5 341.44L380.45 344.38L382.41 347.38L383.41 348.95L384.29 348.48L387.13 347.13L390 345.9L392.91 344.79L395.85 343.79L398.83 342.91L401.82 342.15L404.84 341.51L407.88 340.98L410.94 340.57L414 340.28L417.07 340.1L420.15 340.04L423.22 340.1L426.29 340.28L429.36 340.57L432.41 340.98L435.45 341.51L438.47 342.15L441.47 342.91L444.44 343.79L447.38 344.79L450.29 345.9L453.17 347.13L456 348.48L458.79 349.95L461.53 351.53L464.22 353.23L466.86 355.05L469.44 356.98L471.95 359.03L474.4 361.2L476.78 363.49L479.07 365.87L481.24 368.32L483.29 370.83L485.22 373.41L487.04 376.05L488.74 378.74L490.32 381.48L491.79 384.27L493.14 387.1L494.37 389.98L495.48 392.89L496.48 395.83L497.36 398.8L498.12 401.8L498.76 404.82L499.29 407.86L499.7 410.91L499.99 413.98L500.17 417.05L500.23 420.12L500.17 423.2L499.99 426.27L499.7 429.33L499.29 432.39L498.76 435.42L498.12 438.44L497.36 441.44L496.48 444.42L495.48 447.36L494.37 450.27L493.14 453.14L491.79 455.98L490.32 458.77L488.74 461.51L487.04 464.2L485.22 466.84L483.29 469.41L481.24 471.93L479.07 474.38L476.78 476.76L474.4 479.05L471.95 481.21L469.44 483.27L466.86 485.2L464.22 487.02L461.53 488.72L458.79 490.3L456 491.76L453.17 493.11L450.29 494.34L447.38 495.46L444.44 496.45L441.47 497.33L438.47 498.09L435.45 498.74L432.41 499.27L429.36 499.68L426.29 499.97L423.22 500.15L420.15 500.2L417.07 500.15L414 499.97L410.94 499.68L407.88 499.27L404.84 498.74L401.82 498.09L398.83 497.33L395.85 496.45L392.91 495.46L390 494.34L387.13 493.11L384.29 491.76L381.5 490.3L378.76 488.72L376.07 487.02L373.43 485.2L370.85 483.27L368.34 481.21L365.89 479.05L363.51 476.76L361.22 474.38L359.05 471.93L357 469.41L355.07 466.84L353.25 464.2L351.55 461.51L349.97 458.77L348.5 455.98L347.16 453.14L345.93 450.27L344.81 447.36L343.82 444.42L342.94 441.44L342.17 438.44L341.53 435.42L341 432.39L340.59 429.33L340.3 426.27L340.12 423.2L340.06 420.12L340.12 417.05L340.3 413.98L340.59 410.91L341 407.86L341.53 404.82L342.17 401.8L342.94 398.8L343.82 395.83L344.81 392.89L345.93 389.98L347.16 387.1L348.5 384.27L348.95 383.42L347.38 382.41L344.38 380.45L341.44 378.5L338.54 376.54L335.68 374.56L332.87 372.57L330.09 370.56L327.35 368.53L324.64 366.47L321.97 364.39L319.33 362.27L316.72 360.11L314.13 357.92L311.64 355.74L288.36 355.74L285.87 357.92L283.28 360.11L280.67 362.27L278.03 364.39L275.36 366.47L272.65 368.53L269.91 370.56L267.13 372.57L264.32 374.56L261.46 376.54L258.56 378.5L255.62 380.45L252.62 382.41L251.04 383.42L251.5 384.3L252.84 387.13L254.07 390.01L255.19 392.92L256.18 395.86L257.06 398.83L257.83 401.83L258.47 404.85L259 407.89L259.41 410.94L259.7 414.01L259.88 417.08L259.94 420.15L259.88 423.23L259.7 426.3L259.41 429.36L259 432.42L258.47 435.46L257.83 438.48L257.06 441.47L256.18 444.45L255.19 447.39L254.07 450.3L252.84 453.17L251.5 456.01L250.03 458.8L248.45 461.54L246.75 464.23L244.93 466.87L243 469.45L240.95 471.96L238.78 474.41L236.49 476.79L234.11 479.08L231.66 481.25L229.15 483.3L226.57 485.23L223.93 487.05L221.24 488.75L218.5 490.33L215.71 491.8L212.87 493.14L210 494.37L207.09 495.49L204.15 496.48L201.17 497.36L198.18 498.13L195.16 498.77L192.12 499.3L189.06 499.71L186 500L182.93 500.18L179.85 500.24L176.78 500.18L173.71 500L170.64 499.71L167.59 499.3L164.55 498.77L161.53 498.13L158.53 497.36L155.56 496.48L152.62 495.49L149.71 494.37L146.83 493.14L144 491.8L141.21 490.33L138.47 488.75L135.78 487.05L133.14 485.23L130.56 483.3L128.05 481.25L125.6 479.08L123.22 476.79L120.93 474.41L118.76 471.96L116.71 469.45L114.78 466.87L112.96 464.23L111.26 461.54L109.68 458.8L108.21 456.01L106.86 453.17L105.63 450.3L104.52 447.39L103.52 444.45L102.64 441.47L101.88 438.48L101.24 435.46L100.71 432.42L100.3 429.36L100.01 426.3L99.83 423.23L99.77 420.15L99.83 417.08L100.01 414.01L100.3 410.94L100.71 407.89L101.24 404.85L101.88 401.83L102.64 398.83L103.52 395.86L104.52 392.92L105.63 390.01L106.86 387.13L108.21 384.3L109.68 381.51L111.26 378.77L112.96 376.08L114.78 373.44L116.71 370.86L118.76 368.35L120.93 365.9L123.22 363.52L125.6 361.23L128.05 359.06L130.56 357.01L133.14 355.08L135.78 353.26L138.47 351.56L141.21 349.98L144 348.51L146.83 347.16L149.71 345.93L152.62 344.82L155.56 343.82L158.53 342.94L161.53 342.18L164.55 341.54L167.59 341.01L170.64 340.6L173.71 340.31L176.78 340.13L179.85 340.07L182.93 340.13L186 340.31L189.06 340.6L192.12 341.01L195.16 341.54L198.18 342.18L201.17 342.94L204.15 343.82L207.09 344.82L210 345.93L212.87 347.16L215.71 348.51L216.58 348.97L217.59 347.38L219.55 344.38L221.5 341.44L223.46 338.54L225.44 335.68L227.43 332.87L229.44 330.09L231.47 327.35L233.53 324.64L235.61 321.97L237.73 319.33L239.89 316.72L242.08 314.13L244.32 311.57L245 310.82L245 289.18L244.32 288.43L242.08 285.87L239.89 283.28L237.73 280.67L235.61 278.03L233.53 275.36L231.47 272.65L229.44 269.91L227.43 267.13L225.44 264.32L223.46 261.46L221.5 258.56L219.55 255.62L217.59 252.62L216.58 251.04L215.72 251.49L212.89 252.84L210.02 254.07L207.11 255.18L204.16 256.18L201.19 257.06L198.19 257.82L195.17 258.46L192.13 258.99L189.08 259.4L186.02 259.69L182.94 259.87L179.87 259.93L176.79 259.87L173.72 259.69L170.66 259.4L167.61 258.99L164.57 258.46L161.55 257.82L158.55 257.06L155.58 256.18L152.63 255.18L149.72 254.07L146.85 252.84L144.01 251.49L141.22 250.02L138.48 248.44L135.79 246.74L133.15 244.92L130.58 242.99L128.06 240.94L125.61 238.77L123.23 236.48L120.95 234.1L118.78 231.65L116.73 229.14L114.79 226.56L112.97 223.92L111.27 221.23L109.69 218.49L108.23 215.7L106.88 212.87L105.65 209.99L104.53 207.08L103.54 204.14L102.66 201.17L101.9 198.17L101.25 195.15L100.72 192.11L100.31 189.06L100.02 185.99L99.85 182.92L99.79 179.85L99.85 176.77L100.02 173.7L100.31 170.64L100.72 167.58L101.25 164.54L101.9 161.52L102.66 158.53L103.54 155.55L104.53 152.61L105.65 149.7L106.88 146.83L108.23 143.99L109.69 141.2L111.27 138.46L112.97 135.77L114.79 133.13L116.73 130.55L118.78 128.04L120.95 125.59L123.23 123.21L125.61 120.92L128.06 118.75L130.58 116.7L133.15 114.77L135.79 112.95L138.48 111.25L141.22 109.67L144.01 108.2L146.85 106.86L149.72 105.63L152.63 104.51L155.58 103.52L158.55 102.64L161.55 101.87L164.57 101.23L167.61 100.7L170.66 100.29L173.72 100L176.79 99.82L179.87 99.76L182.94 99.82L186.02 100L189.08 100.29L192.13 100.7L192.13 100.7L195.17 101.23ZM120.15 390.28L119.03 392.64L118 395.03L117.07 397.46L116.24 399.91L115.51 402.39L114.88 404.89L114.34 407.4L113.9 409.93L113.56 412.48L113.31 415.03L113.17 417.59L113.12 420.15L113.17 422.72L113.31 425.28L113.56 427.83L113.9 430.37L114.34 432.91L114.88 435.42L115.51 437.92L116.24 440.4L117.07 442.85L118 445.28L119.03 447.67L120.15 450.03L121.37 452.36L122.69 454.64L124.11 456.89L125.62 459.08L127.23 461.23L128.94 463.33L130.75 465.37L132.66 467.35L134.64 469.26L136.68 471.06L138.78 472.77L140.92 474.39L143.12 475.9L145.36 477.32L147.65 478.63L149.97 479.86L152.34 480.98L154.73 482L157.16 482.93L159.61 483.76L162.09 484.5L164.58 485.13L167.1 485.67L169.63 486.11L172.18 486.45L174.73 486.69L177.29 486.84L179.85 486.89L182.42 486.84L184.98 486.69L187.53 486.45L190.07 486.11L192.6 485.67L195.12 485.13L197.62 484.5L200.1 483.76L202.55 482.93L204.98 482L207.37 480.98L209.73 479.86L212.06 478.63L214.34 477.32L216.58 475.9L218.78 474.39L219.83 473.6L191.5 450.68L186.99 438.86L186.52 439.04L185.33 439.41L184.13 439.72L182.92 439.94L181.7 440.09L180.47 440.17L179.24 440.17L178.01 440.09L176.79 439.94L175.57 439.72L174.37 439.41L173.19 439.04L172.03 438.59L170.89 438.06L169.78 437.46L168.7 436.79L167.66 436.04L166.65 435.21L165.69 434.31L164.79 433.35L163.97 432.35L163.22 431.31L162.54 430.23L161.94 429.12L161.42 427.98L160.97 426.82L160.59 425.63L160.29 424.43L160.07 423.22L159.92 422L159.84 420.77L159.84 419.54L159.92 418.31L160.07 417.09L160.29 415.88L160.59 414.67L160.97 413.49L161.15 413.02L149.33 408.51L126.41 380.18L125.62 381.23L124.11 383.42L122.69 385.67L121.37 387.95L121.37 387.95L120.15 390.28ZM439.71 415.84L439.93 417.06L440.08 418.28L440.16 419.51L440.16 420.74L440.08 421.97L439.93 423.19L439.71 424.4L439.41 425.6L439.03 426.79L438.58 427.95L438.06 429.09L437.46 430.2L436.78 431.28L436.03 432.32L435.21 433.32L434.31 434.28L433.35 435.18L432.34 436.01L431.3 436.76L430.22 437.43L429.11 438.03L427.97 438.56L426.81 439.01L425.63 439.38L424.43 439.68L423.21 439.91L421.99 440.06L420.76 440.13L419.53 440.13L418.3 440.06L417.08 439.91L415.87 439.68L414.67 439.38L413.48 439.01L413.01 438.83L408.5 450.65L380.17 473.57L381.22 474.35L383.42 475.87L385.66 477.28L387.94 478.6L390.27 479.82L392.63 480.95L395.02 481.97L397.45 482.9L399.9 483.73L402.38 484.46L404.88 485.1L407.4 485.64L409.93 486.08L412.47 486.42L415.02 486.66L417.58 486.81L420.15 486.86L422.71 486.81L425.27 486.66L427.82 486.42L430.37 486.08L432.9 485.64L435.42 485.1L437.91 484.46L440.39 483.73L442.84 482.9L445.27 481.97L447.66 480.95L450.03 479.82L452.35 478.6L454.64 477.28L456.88 475.87L459.08 474.35L461.22 472.74L463.32 471.03L465.36 469.23L467.34 467.32L469.25 465.34L471.06 463.3L472.77 461.2L474.38 459.05L475.89 456.85L477.31 454.61L478.63 452.33L479.85 450L480.97 447.64L482 445.24L482.93 442.82L483.76 440.37L484.49 437.89L485.12 435.39L485.66 432.87L486.1 430.34L486.44 427.8L486.69 425.24L486.83 422.69L486.88 420.12L486.83 417.56L486.69 415L486.44 412.45L486.1 409.9L485.66 407.37L485.12 404.85L484.49 402.36L483.76 399.88L482.93 397.43L482 395L480.97 392.61L479.85 390.24L478.63 387.92L477.31 385.63L475.89 383.39L474.38 381.19L473.59 380.14L450.67 408.48L438.85 412.99L439.03 413.46L439.41 414.64L439.41 414.64L439.71 415.84ZM223.21 400.33L219.63 402.42L215.98 404.56L212.26 406.72L212.03 406.86L199.84 419.05L199.86 419.54L199.86 420.77L199.79 422L199.64 423.22L199.41 424.43L199.11 425.63L198.74 426.82L198.56 427.29L210.38 431.8L233.3 460.13L234.08 459.08L235.6 456.89L237.02 454.64L238.33 452.36L239.56 450.03L240.68 447.67L241.7 445.28L242.63 442.85L243.46 440.4L244.2 437.92L244.83 435.42L245.37 432.91L245.81 430.37L246.15 427.83L246.39 425.28L246.54 422.72L246.59 420.15L246.54 417.59L246.39 415.03L246.15 412.48L245.81 409.93L245.37 407.4L244.83 404.89L244.2 402.39L243.46 399.91L242.63 397.46L241.7 395.03L240.68 392.64L239.67 390.51L236.88 392.21L233.56 394.21L230.17 396.22L226.73 398.26L226.73 398.26L223.21 400.33ZM355.8 402.36L355.17 404.85L354.63 407.37L354.19 409.9L353.85 412.45L353.61 415L353.46 417.56L353.41 420.12L353.46 422.69L353.61 425.24L353.85 427.8L354.19 430.34L354.63 432.87L355.17 435.39L355.8 437.89L356.54 440.37L357.37 442.82L358.3 445.24L359.32 447.64L360.44 450L361.67 452.33L362.98 454.61L364.4 456.85L365.92 459.05L366.7 460.1L389.62 431.77L401.44 427.26L401.26 426.79L400.89 425.6L400.59 424.4L400.36 423.19L400.21 421.97L400.14 420.74L400.14 419.51L400.17 419.02L388.05 406.9L387.74 406.72L384.02 404.56L380.37 402.42L376.79 400.33L373.27 398.26L369.83 396.22L366.44 394.21L363.12 392.21L360.32 390.51L359.32 392.61L358.3 395L357.37 397.43L356.54 399.88L356.54 399.88L355.8 402.36ZM167.1 354.64L164.58 355.18L162.09 355.81L159.61 356.55L157.16 357.38L154.73 358.3L152.34 359.33L149.97 360.45L147.65 361.67L145.36 362.99L143.12 364.41L140.92 365.92L139.87 366.71L168.21 389.63L172.72 401.45L173.19 401.27L174.37 400.89L175.57 400.59L176.79 400.37L178.01 400.22L179.24 400.14L180.47 400.14L180.96 400.17L193.12 388.01L193.28 387.74L195.44 384.02L197.58 380.37L199.67 376.79L201.74 373.27L203.78 369.83L205.79 366.44L207.79 363.12L209.48 360.33L207.37 359.33L204.98 358.3L202.55 357.38L200.1 356.55L197.62 355.81L195.12 355.18L192.6 354.64L190.07 354.2L187.53 353.86L184.98 353.61L182.42 353.47L179.85 353.42L177.29 353.47L174.73 353.61L172.18 353.86L169.63 354.2L169.63 354.2L167.1 354.64ZM407.4 354.61L404.88 355.15L402.38 355.78L399.9 356.51L397.45 357.34L395.02 358.27L392.63 359.3L390.5 360.31L392.21 363.12L394.21 366.44L396.22 369.83L398.26 373.27L400.33 376.79L402.42 380.37L404.56 384.02L406.72 387.74L406.84 387.93L419.05 400.14L419.53 400.11L420.76 400.11L421.99 400.19L423.21 400.34L424.43 400.56L425.63 400.86L426.81 401.24L427.28 401.42L431.79 389.6L460.13 366.68L459.08 365.89L456.88 364.38L454.64 362.96L452.35 361.64L450.03 360.42L447.66 359.3L445.27 358.27L442.84 357.34L440.39 356.51L437.91 355.78L435.42 355.15L432.9 354.61L430.37 354.17L427.82 353.83L425.27 353.58L422.71 353.44L420.15 353.39L417.58 353.44L415.02 353.58L412.47 353.83L409.93 354.17L409.93 354.17L407.4 354.61ZM421.99 199.8L420.76 199.87L419.53 199.87L419.05 199.84L406.86 212.03L406.72 212.26L404.56 215.98L402.42 219.63L400.33 223.21L398.26 226.73L396.22 230.17L394.21 233.56L392.21 236.88L390.51 239.68L392.63 240.69L395.02 241.71L397.45 242.64L399.9 243.47L402.38 244.2L404.88 244.84L407.4 245.38L409.93 245.81L412.47 246.16L415.02 246.4L417.58 246.55L420.15 246.6L422.71 246.55L425.27 246.4L427.82 246.16L430.37 245.81L432.9 245.38L435.42 244.84L437.91 244.2L440.39 243.47L442.84 242.64L445.27 241.71L447.66 240.69L450.03 239.56L452.35 238.34L454.64 237.02L456.88 235.61L459.08 234.09L460.13 233.3L431.79 210.39L427.28 198.56L426.81 198.75L425.63 199.12L424.43 199.42L423.21 199.65L423.21 199.65L421.99 199.8ZM145.38 237.01L147.67 238.33L149.99 239.55L152.35 240.67L154.75 241.7L157.17 242.62L159.62 243.45L162.1 244.19L164.6 244.82L167.12 245.36L169.65 245.8L172.19 246.14L174.75 246.39L177.31 246.53L179.87 246.58L182.43 246.53L184.99 246.39L187.54 246.14L190.09 245.8L192.62 245.36L195.14 244.82L197.64 244.19L200.11 243.45L202.57 242.62L204.99 241.7L207.39 240.67L209.49 239.67L207.79 236.88L205.79 233.56L203.78 230.17L201.74 226.73L199.67 223.21L197.58 219.63L195.44 215.98L193.28 212.26L193.1 211.95L180.97 199.83L180.48 199.86L179.25 199.86L178.03 199.78L176.8 199.63L175.59 199.41L174.39 199.11L173.21 198.73L172.73 198.55L168.22 210.37L139.89 233.29L140.94 234.08L143.14 235.59L143.14 235.59L145.38 237.01ZM407.4 114.35L404.88 114.89L402.38 115.52L399.9 116.25L397.45 117.08L395.02 118.01L392.63 119.04L390.27 120.16L387.94 121.38L385.66 122.7L383.42 124.12L381.22 125.63L380.17 126.42L408.5 149.33L413.01 161.16L413.48 160.98L414.67 160.6L415.87 160.3L417.08 160.08L418.3 159.93L419.53 159.85L420.76 159.85L421.99 159.93L423.21 160.08L424.43 160.3L425.63 160.6L426.81 160.98L427.97 161.43L429.11 161.95L430.22 162.55L431.3 163.23L432.34 163.98L433.35 164.8L434.31 165.7L435.21 166.66L436.03 167.67L436.78 168.71L437.46 169.79L438.06 170.9L438.58 172.04L439.03 173.2L439.41 174.38L439.71 175.58L439.93 176.8L440.08 178.02L440.16 179.25L440.16 180.48L440.08 181.7L439.93 182.93L439.71 184.14L439.41 185.34L439.03 186.52L438.85 187L450.67 191.51L473.59 219.84L474.38 218.79L475.89 216.59L477.31 214.35L478.63 212.07L479.85 209.74L480.97 207.38L482 204.98L482.93 202.56L483.76 200.11L484.49 197.63L485.12 195.13L485.66 192.61L486.1 190.08L486.44 187.54L486.69 184.98L486.83 182.42L486.88 179.86L486.83 177.3L486.69 174.74L486.44 172.19L486.1 169.64L485.66 167.11L485.12 164.59L484.49 162.09L483.76 159.62L482.93 157.16L482 154.74L480.97 152.34L479.85 149.98L478.63 147.66L477.31 145.37L475.89 143.13L474.38 140.93L472.77 138.79L471.06 136.69L469.25 134.65L467.34 132.66L465.36 130.76L463.32 128.95L461.22 127.24L459.08 125.63L456.88 124.12L454.64 122.7L452.35 121.38L450.03 120.16L447.66 119.04L445.27 118.01L442.84 117.08L440.39 116.25L437.91 115.52L435.42 114.89L432.9 114.35L430.37 113.91L427.82 113.57L425.27 113.32L422.71 113.18L420.15 113.13L417.58 113.18L415.02 113.32L412.47 113.57L409.93 113.91L409.93 113.91L407.4 114.35ZM167.12 114.33L164.6 114.87L162.1 115.5L159.62 116.24L157.17 117.07L154.75 118L152.35 119.02L149.99 120.14L147.67 121.37L145.38 122.68L143.14 124.1L140.94 125.61L138.79 127.23L136.7 128.94L134.65 130.74L132.67 132.65L130.77 134.63L128.96 136.67L127.25 138.77L125.64 140.92L124.12 143.11L122.71 145.36L121.39 147.64L120.17 149.97L119.04 152.33L118.02 154.72L117.09 157.15L116.26 159.6L115.53 162.08L114.89 164.58L114.35 167.09L113.92 169.63L113.57 172.17L113.33 174.72L113.18 177.28L113.13 179.85L113.18 182.41L113.33 184.97L113.57 187.52L113.92 190.07L114.35 192.6L114.89 195.11L115.53 197.61L116.26 200.09L117.09 202.54L118.02 204.97L119.04 207.36L120.17 209.72L121.39 212.05L122.71 214.33L124.12 216.58L125.64 218.77L126.43 219.83L149.34 191.49L161.17 186.98L160.98 186.51L160.61 185.33L160.31 184.12L160.08 182.91L159.93 181.69L159.86 180.46L159.86 179.23L159.93 178L160.08 176.78L160.31 175.57L160.61 174.37L160.98 173.18L161.43 172.02L161.96 170.88L162.56 169.77L163.23 168.69L163.98 167.65L164.81 166.65L165.71 165.69L166.67 164.79L167.67 163.96L168.72 163.21L169.8 162.54L170.91 161.94L172.04 161.41L173.21 160.96L174.39 160.59L175.59 160.28L176.8 160.06L178.03 159.91L179.25 159.83L180.48 159.83L181.71 159.91L182.93 160.06L184.15 160.28L185.35 160.59L186.53 160.96L187.01 161.14L191.52 149.32L219.85 126.4L218.8 125.61L216.6 124.1L214.36 122.68L212.07 121.37L209.75 120.14L207.39 119.02L204.99 118L202.57 117.07L200.11 116.24L197.64 115.5L195.14 114.87L192.62 114.33L190.09 113.89L187.54 113.55L184.99 113.31L182.43 113.16L179.87 113.11L177.31 113.16L174.75 113.31L172.19 113.55L169.65 113.89L169.65 113.89L167.12 114.33ZM199.43 175.57L199.65 176.78L199.81 178L199.88 179.23L199.88 180.46L199.85 180.95L212.06 193.16L212.26 193.28L215.98 195.44L219.63 197.58L223.21 199.67L226.73 201.74L230.17 203.78L233.56 205.79L236.88 207.79L239.68 209.49L240.69 207.36L241.72 204.97L242.65 202.54L243.48 200.09L244.21 197.61L244.85 195.11L245.38 192.6L245.82 190.07L246.16 187.52L246.41 184.97L246.56 182.41L246.6 179.85L246.56 177.28L246.41 174.72L246.16 172.17L245.82 169.63L245.38 167.09L244.85 164.58L244.21 162.08L243.48 159.6L242.65 157.15L241.72 154.72L240.69 152.33L239.57 149.97L238.35 147.64L237.03 145.36L235.61 143.11L234.1 140.92L233.31 139.87L210.4 168.2L198.57 172.71L198.75 173.18L199.13 174.37L199.13 174.37L199.43 175.57ZM360.44 149.98L359.32 152.34L358.3 154.74L357.37 157.16L356.54 159.62L355.8 162.09L355.17 164.59L354.63 167.11L354.19 169.64L353.85 172.19L353.61 174.74L353.46 177.3L353.41 179.86L353.46 182.42L353.61 184.98L353.85 187.54L354.19 190.08L354.63 192.61L355.17 195.13L355.8 197.63L356.54 200.11L357.37 202.56L358.3 204.98L359.32 207.38L360.33 209.49L363.12 207.79L366.44 205.79L369.83 203.78L373.27 201.74L376.79 199.67L380.37 197.58L384.02 195.44L387.74 193.28L388.01 193.12L400.17 180.96L400.14 180.48L400.14 179.25L400.21 178.02L400.36 176.8L400.59 175.58L400.89 174.38L401.26 173.2L401.44 172.73L389.62 168.21L366.7 139.88L365.92 140.93L364.4 143.13L362.98 145.37L361.67 147.66L361.67 147.66L360.44 149.98Z" id="a10kXpOUJ"></path></defs><g><g><g><use xlink:href="#a10kXpOUJ" opacity="1" fill="#000000" fill-opacity="1"></use></g></g></g></svg>